<svg xmlns="http://www.w3.org/2000/svg" viewBox="0 0 200 240" width="200" height="240">
  <defs>
    <linearGradient id="glass" x1="0" y1="0" x2="0" y2="1">
      <stop offset="0%" stop-color="#FFD700" stop-opacity="0.25"></stop>
      <stop offset="60%" stop-color="#C9A84C" stop-opacity="0.10"></stop>
      <stop offset="100%" stop-color="#0D1B4B" stop-opacity="0.4"></stop>
    </linearGradient>
    <radialGradient id="inner" cx="50%" cy="40%" r="55%">
      <stop offset="0%" stop-color="#FFD700" stop-opacity="0.40"></stop>
      <stop offset="100%" stop-color="#FFD700" stop-opacity="0"></stop>
    </radialGradient>
    <radialGradient id="halo2" cx="50%" cy="50%" r="60%">
      <stop offset="0%" stop-color="#FFD700" stop-opacity="0.25"></stop>
      <stop offset="100%" stop-color="#FFD700" stop-opacity="0"></stop>
    </radialGradient>
  </defs>
  <ellipse cx="100" cy="130" rx="100" ry="110" fill="url(#halo2)"></ellipse>
  
  <rect x="78" y="28" width="44" height="20" rx="4" fill="#8B6F2A"></rect>
  <rect x="76" y="40" width="48" height="14" rx="3" fill="#C9A84C"></rect>
  
  <path d="M70 56 Q60 60 60 80 L60 200 Q60 224 100 224 Q140 224 140 200 L140 80 Q140 60 130 56 Z" fill="url(#glass)" stroke="#C9A84C" stroke-width="1.2" opacity="0.9"></path>
  
  <ellipse cx="100" cy="135" rx="44" ry="70" fill="url(#inner)"></ellipse>
  
  <g opacity="0.95">
    <rect x="80" y="120" width="22" height="14" rx="2" fill="#F5F0E8" transform="rotate(-12 91 127)"></rect>
    <rect x="105" y="100" width="20" height="12" rx="2" fill="#FFD700" opacity="0.8" transform="rotate(20 115 106)"></rect>
    <rect x="90" y="160" width="24" height="14" rx="2" fill="#F5F0E8" opacity="0.85" transform="rotate(8 102 167)"></rect>
    <rect x="72" y="180" width="18" height="10" rx="2" fill="#FFD700" opacity="0.7" transform="rotate(-18 81 185)"></rect>
  </g>
  
  <path d="M72 80 Q66 100 68 160" stroke="#F5F0E8" stroke-width="1" opacity="0.25" fill="none"></path>
</svg>