<svg xmlns="http://www.w3.org/2000/svg" viewBox="0 0 800 600" width="800" height="600">
  <defs>
    <radialGradient id="sky" cx="50%" cy="100%" r="120%">
      <stop offset="0%" stop-color="#0D1B4B"></stop>
      <stop offset="60%" stop-color="#0A0A1A"></stop>
      <stop offset="100%" stop-color="#050510"></stop>
    </radialGradient>
  </defs>
  <rect width="800" height="600" fill="url(#sky)"></rect>
  <g fill="#F5F0E8">
    
    <circle cx="40" cy="80" r="1"></circle><circle cx="120" cy="40" r="0.8"></circle><circle cx="220" cy="120" r="1.2"></circle>
    <circle cx="320" cy="60" r="0.7"></circle><circle cx="450" cy="100" r="1"></circle><circle cx="540" cy="30" r="0.9"></circle>
    <circle cx="640" cy="140" r="1.1"></circle><circle cx="730" cy="80" r="0.7"></circle><circle cx="780" cy="200" r="1"></circle>
    <circle cx="60" cy="240" r="0.8"></circle><circle cx="180" cy="280" r="1.2"></circle><circle cx="260" cy="220" r="0.6"></circle>
    <circle cx="380" cy="260" r="0.9"></circle><circle cx="490" cy="240" r="1"></circle><circle cx="600" cy="300" r="0.8"></circle>
    <circle cx="700" cy="260" r="1.1"></circle><circle cx="80" cy="380" r="0.7"></circle><circle cx="200" cy="420" r="1"></circle>
    <circle cx="320" cy="400" r="0.8"></circle><circle cx="440" cy="380" r="1.1"></circle><circle cx="560" cy="440" r="0.9"></circle>
    <circle cx="680" cy="400" r="0.7"></circle><circle cx="160" cy="500" r="1"></circle><circle cx="380" cy="540" r="0.8"></circle>
    <circle cx="600" cy="520" r="1.2"></circle><circle cx="740" cy="480" r="0.7"></circle>
  </g>
  
  <g fill="#FFD700" opacity="0.7">
    <circle cx="120" cy="500" r="1.5"></circle><circle cx="280" cy="460" r="1.2"></circle><circle cx="500" cy="420" r="1.8"></circle>
    <circle cx="660" cy="500" r="1.3"></circle><circle cx="80" cy="350" r="1"></circle><circle cx="720" cy="380" r="1.4"></circle>
  </g>
</svg>